<svg width="600" height="251" viewBox="0 0 600 251" fill="none" xmlns="http://www.w3.org/2000/svg">
<path d="M138.649 153.92V132.594H81.0547V153.92C81.0547 161.902 89.9105 168.4 100.796 168.4H118.908C129.793 168.4 138.649 161.902 138.649 153.92Z" fill="url(#paint0_linear)"/>
<path d="M130.745 91.1724C127.016 91.1724 123.981 93.9355 123.981 97.3305V118.933H137.518V97.3305C137.509 93.9355 134.474 91.1724 130.745 91.1724Z" fill="url(#paint1_linear)"/>
<path d="M90.0354 91.1724C86.3061 91.1724 83.2622 93.9355 83.2622 97.3305V118.933H96.7996V97.3305C96.8085 93.9355 93.7735 91.1724 90.0354 91.1724Z" fill="url(#paint2_linear)"/>
<path d="M220.256 96.9335L117.119 2.20395C115.588 0.794071 113.496 0 111.316 0C109.135 0 107.044 0.794071 105.513 2.20395L2.36687 96.9335C0.0349817 99.0726 -0.641444 102.281 0.640204 105.061C1.92185 107.824 4.88567 109.614 8.16989 109.614H8.22329L30.3406 109.477V187.944V242.419V247.645C30.3406 249.646 31.5956 250.789 33.794 250.789H43.6733C45.1152 250.789 46.1387 250.287 46.6817 249.387V242.419V186.194V101.973C46.6817 99.9882 45.8094 98.0922 44.2697 96.6985C42.721 95.2967 40.6383 94.5512 38.4488 94.535L27.9019 94.5999L111.307 18.0044L194.712 94.5999L183.871 94.535H183.818C181.664 94.535 179.59 95.3129 178.06 96.6985C176.511 98.0922 175.648 99.9963 175.648 101.973V234.964H120.047V187.174V178.472C119.495 177.548 118.445 177.037 116.968 177.037H106.857C104.605 177.037 103.323 178.204 103.323 180.254V241.349C103.323 242.062 103.493 242.662 103.786 243.148C104.196 246.908 107.64 249.849 111.877 249.849H183.827C188.339 249.849 191.997 246.519 191.997 242.411V109.468L214.408 109.606H214.462C217.746 109.606 220.719 107.815 221.992 105.052C223.273 102.273 222.588 99.0645 220.256 96.9335Z" fill="url(#paint3_linear)"/>
<path d="M302.726 179.763C302.726 179.763 290.573 179.763 290.573 171.3C290.573 168.286 293.525 163.023 302.553 163.023C306.235 163.023 310.84 164.722 314.897 168.668C316.551 170.171 318.762 170.554 320.608 169.238L328.53 163.406C330.559 161.904 330.559 159.45 329.078 157.761C322.82 149.858 312.686 145.341 302.553 145.341C281.555 145.341 271.422 158.89 271.422 171.3C271.422 186.164 282.478 196.315 302.37 197.444C302.37 197.444 316.003 197.071 316.003 206.85C316.003 212.309 312.138 218.14 302.553 218.14C294.631 218.14 287.266 212.122 283.574 207.036C282.286 205.151 280.257 204.592 278.229 205.907L270.855 210.983C268.826 212.485 268.461 214.743 269.749 216.815C275.277 225.847 286.324 235.999 302.543 235.999C323.541 235.999 335.703 223.206 335.703 206.84C335.703 188.608 320.406 180.519 302.726 179.763Z" fill="url(#paint4_linear)"/>
<path d="M483.545 148.154C459.307 148.154 439.656 168.222 439.656 192.973C439.656 217.723 459.307 237.791 483.545 237.791C507.782 237.791 527.434 217.723 527.434 192.973C527.434 168.212 507.782 148.154 483.545 148.154ZM483.545 220.237C468.796 220.237 456.846 208.033 456.846 192.973C456.846 177.912 468.796 165.709 483.545 165.709C498.293 165.709 510.244 177.912 510.244 192.973C510.244 208.023 498.293 220.237 483.545 220.237Z" fill="url(#paint5_linear)"/>
<path d="M469.692 187.867C466.065 178.845 466.797 168.425 472.019 159.898C478.578 155.017 490.201 154.868 497.28 158.858C483.217 161.024 469.692 187.867 469.692 187.867ZM480.718 176.691C480.718 176.691 510.727 174.98 519.634 186.077C519.549 177.95 513.609 167.959 506.104 164.72C496.103 164.461 486.718 169.038 480.718 176.691ZM495.909 180.649C495.909 180.649 512.393 205.783 507.237 219.045C514.233 214.908 519.913 204.765 518.968 196.648C514.194 187.86 505.536 182.019 495.909 180.649ZM472.488 224.793C479.569 228.784 491.193 228.634 497.749 223.753C502.975 215.226 503.704 204.808 500.076 195.785C500.076 195.785 486.552 222.628 472.488 224.793ZM489.052 206.962C489.052 206.962 459.042 208.671 450.137 197.576C450.22 205.701 456.161 215.695 463.668 218.931C473.664 219.191 483.054 214.615 489.052 206.962ZM473.861 203.003C473.861 203.003 457.377 177.869 462.533 164.61C455.538 168.745 449.855 178.887 450.803 187.005C455.576 195.791 464.233 201.634 473.861 203.003ZM526.798 192.226C526.798 215.493 507.87 234.421 484.602 234.421C461.335 234.422 442.406 215.493 442.406 192.226C442.406 168.959 461.336 150.03 484.602 150.03C507.87 150.03 526.798 168.959 526.798 192.226ZM522.903 192.226C522.903 171.107 505.722 153.924 484.602 153.924C463.483 153.924 446.299 171.106 446.299 192.226C446.299 213.345 463.483 230.527 484.602 230.527C505.722 230.527 522.903 213.345 522.903 192.226Z" fill="url(#paint6_linear)"/>
<path d="M536.237 38.1336V28.4422C536.237 25.6807 538.476 23.4422 541.237 23.4422H595C597.761 23.4422 600 25.6807 600 28.4422V38.1336C600 40.895 597.761 43.1336 595 43.1336H582.64C579.823 43.1336 577.562 45.4602 577.642 48.2764L579.224 103.629C579.304 106.445 577.043 108.772 574.226 108.772H563.924C561.092 108.772 558.826 106.423 558.927 103.593L560.901 48.312C561.002 45.4825 558.736 43.1336 555.904 43.1336H541.237C538.476 43.1336 536.237 40.895 536.237 38.1336Z" fill="url(#paint7_linear)"/>
<path d="M484.482 23.4422C460.245 23.4422 440.593 43.5097 440.593 68.2603C440.593 93.011 460.245 113.079 484.482 113.079C508.72 113.079 528.371 93.011 528.371 68.2603C528.371 43.4999 508.72 23.4422 484.482 23.4422ZM484.482 90.4868C469.734 90.4868 463.098 83.3208 463.098 68.2603C463.098 53.1999 469.734 45.009 484.482 45.009C499.231 45.009 507.169 53.1999 507.169 68.2603C507.169 83.311 499.231 90.4868 484.482 90.4868Z" fill="url(#paint8_linear)"/>
<path d="M419.401 23.4422H407.797C405.22 23.4422 403.749 24.9443 403.749 27.5755V56.3514C403.749 57.667 403.009 58.4229 401.72 58.4229H378.877C377.589 58.4229 376.848 57.667 376.848 56.3514V27.5755C376.848 24.9443 375.377 23.4422 372.801 23.4422H361.196C358.62 23.4422 357.139 24.9443 357.139 27.5755V106.206C357.139 108.837 358.61 110.339 361.196 110.339H372.801C375.377 110.339 376.848 108.837 376.848 106.206V77.4203C376.848 76.1048 377.589 75.3488 378.877 75.3488H401.72C403.009 75.3488 403.749 76.1048 403.749 77.4203V106.206C403.749 108.837 405.22 110.339 407.797 110.339H419.401C421.978 110.339 423.449 108.837 423.449 106.206V27.5755C423.449 24.9541 421.978 23.4422 419.401 23.4422Z" fill="url(#paint9_linear)"/>
<path d="M417.526 148.154H405.921C403.345 148.154 401.874 149.657 401.874 152.288V181.064C401.874 182.379 401.133 183.135 399.845 183.135H377.002C375.713 183.135 374.973 182.379 374.973 181.064V152.288C374.973 149.657 373.502 148.154 370.925 148.154H359.321C356.744 148.154 355.264 149.657 355.264 152.288V230.918C355.264 233.55 356.735 235.052 359.321 235.052H370.925C373.502 235.052 374.973 233.55 374.973 230.918V202.133C374.973 200.817 375.713 200.061 377.002 200.061H399.845C401.133 200.061 401.874 200.817 401.874 202.133V230.918C401.874 233.55 403.345 235.052 405.921 235.052H417.526C420.102 235.052 421.573 233.55 421.573 230.918V152.288C421.573 149.666 420.102 148.154 417.526 148.154Z" fill="url(#paint10_linear)"/>
<path d="M536.237 162.846V153.154C536.237 150.393 538.476 148.154 541.237 148.154H595C597.761 148.154 600 150.393 600 153.154V162.846C600 165.607 597.761 167.846 595 167.846H582.64C579.823 167.846 577.562 170.172 577.642 172.989L579.224 228.341C579.304 231.157 577.043 233.484 574.226 233.484H563.924C561.092 233.484 558.826 231.135 558.927 228.305L560.901 173.024C561.002 170.195 558.736 167.846 555.904 167.846H541.237C538.476 167.846 536.237 165.607 536.237 162.846Z" fill="url(#paint11_linear)"/>
<path d="M303.917 91.9806C303.917 97.6531 308.613 102.252 314.406 102.252C320.198 102.252 324.895 97.6531 324.895 91.9806C324.895 86.3082 320.198 81.709 314.406 81.709C308.611 81.709 303.917 86.3082 303.917 91.9806ZM320.787 91.9806C320.787 95.4322 317.93 98.2291 314.406 98.2291C310.881 98.2291 308.025 95.4322 308.025 91.9806C308.025 88.529 310.881 85.7321 314.406 85.7321C317.928 85.7321 320.787 88.529 320.787 91.9806Z" fill="url(#paint12_linear)"/>
<path d="M300.647 119.722V117.013C300.647 116.41 300.296 116.068 299.682 116.068H294.588C294.193 116.068 294.105 115.852 294.193 115.507C294.413 114.776 294.588 114.045 294.588 112.927C294.588 108.282 291.162 105.184 287.254 105.184C283.345 105.184 279.919 108.28 279.919 112.927C279.919 117.573 283.345 120.669 287.254 120.669H299.682C300.296 120.669 300.647 120.325 300.647 119.722ZM284.09 112.927C284.09 110.906 285.714 109.788 287.251 109.788C288.789 109.788 290.413 110.906 290.413 112.927C290.413 114.949 288.789 116.065 287.251 116.065C285.714 116.065 284.09 114.947 284.09 112.927Z" fill="url(#paint13_linear)"/>
<path d="M304.19 106.095V108.811C304.19 109.414 304.542 109.759 305.158 109.759H311.892C312.2 109.759 312.377 109.932 312.377 110.233V115.579C312.377 115.881 312.2 116.054 311.892 116.054H305.158C304.542 116.054 304.19 116.398 304.19 117.001V119.717C304.19 120.32 304.542 120.667 305.158 120.667H323.56C324.176 120.667 324.527 120.323 324.527 119.717V117.001C324.527 116.398 324.176 116.054 323.56 116.054H316.823C316.515 116.054 316.338 115.881 316.338 115.579V110.233C316.338 109.932 316.515 109.759 316.823 109.759H323.56C324.176 109.759 324.527 109.414 324.527 108.811V106.095C324.527 105.492 324.176 105.148 323.56 105.148H305.158C304.544 105.148 304.19 105.492 304.19 106.095Z" fill="url(#paint14_linear)"/>
<path d="M301.086 74.5492C301.086 73.0012 300.647 72.0112 297.573 70.6364L296.431 70.1211C296.167 69.9906 295.946 69.8623 295.946 69.6913C295.946 69.5203 296.167 69.3898 296.431 69.2616L297.573 68.7463C300.604 67.3693 301.086 66.3815 301.086 64.8334C301.086 63.4564 300.121 61.9511 297.442 61.9511H281.323C280.708 61.9511 280.358 62.2953 280.358 62.8961V65.3914C280.358 65.9945 280.71 66.3365 281.323 66.3365H292.04C292.522 66.3365 292.566 66.6807 292.04 66.9395L289.843 68.015C288.966 68.4448 288.175 68.8318 288.175 69.6913C288.175 70.5509 288.966 70.9401 289.843 71.3699L292.04 72.4454C292.566 72.7042 292.522 73.0484 292.04 73.0484H281.323C280.708 73.0484 280.358 73.3927 280.358 73.9935V76.4843C280.358 77.0873 280.71 77.4316 281.323 77.4316H297.442C300.119 77.4316 301.086 75.8835 301.086 74.5492Z" fill="url(#paint15_linear)"/>
<path d="M301.086 49.4766C301.086 45.6492 298.846 43.2417 296.695 42.4226C296.387 42.2944 295.73 42.1639 295.378 42.6814L294.016 44.702C293.708 45.1745 293.752 45.692 294.237 45.9912C295.643 46.808 296.916 47.582 296.916 49.4744C296.916 51.4972 295.291 52.6132 293.754 52.6132H292.964C292.656 52.6132 292.481 52.4422 292.481 52.1407V47.9263C292.481 47.3233 292.13 46.9813 291.516 46.9813H289.496C288.881 46.9813 288.531 47.3255 288.531 47.9263V52.1407C288.531 52.4422 288.357 52.6132 288.049 52.6132H287.258C285.721 52.6132 284.097 51.4949 284.097 49.4744C284.097 47.582 285.37 46.808 286.776 45.9912C287.258 45.6897 287.302 45.1745 286.996 44.702L285.634 42.6814C285.282 42.1661 284.623 42.2944 284.317 42.4226C282.164 43.2394 279.924 45.6492 279.924 49.4766C279.924 54.123 283.35 57.2191 287.258 57.2191H293.759C297.66 57.2191 301.086 54.123 301.086 49.4766Z" fill="url(#paint16_linear)"/>
<path d="M290.942 23.9338C290.677 24.2353 290.415 24.1926 290.151 23.9338C289.274 22.9865 288.35 22.2125 286.417 22.2125C282.288 22.2125 279.917 25.3086 279.917 29.955C279.917 34.6014 283.343 37.6975 287.252 37.6975H299.68C300.296 37.6975 300.645 37.3533 300.645 36.7502V34.0412C300.645 33.4381 300.293 33.0961 299.68 33.0961H292.961C292.653 33.0961 292.479 32.9251 292.479 32.6236V29.9573C292.479 27.9367 294.103 26.8184 295.64 26.8184H299.682C300.298 26.8184 300.647 26.4742 300.647 25.8734V23.1643C300.647 22.5613 300.296 22.2193 299.682 22.2193H295.64C293.092 22.2125 291.907 22.9438 290.942 23.9338ZM288.524 29.955V32.6214C288.524 32.9229 288.35 33.0939 288.042 33.0939H287.252C285.714 33.0939 284.09 31.9756 284.09 29.955C284.09 28.3215 284.793 26.8162 286.417 26.8162C288.263 26.8139 288.524 29.0505 288.524 29.955Z" fill="url(#paint17_linear)"/>
<path d="M304.19 62.7633V65.4792C304.19 66.0822 304.542 66.4265 305.158 66.4265H317.616C319.155 66.4265 320.787 67.547 320.787 69.5743C320.787 71.6016 319.158 72.7222 317.616 72.7222H305.158C304.542 72.7222 304.19 73.0664 304.19 73.6694V76.3853C304.19 76.9883 304.542 77.3348 305.158 77.3348H317.616C321.533 77.3348 324.968 74.2297 324.968 69.5743C324.968 64.9189 321.536 61.8138 317.616 61.8138H305.158C304.544 61.816 304.19 62.1603 304.19 62.7633Z" fill="url(#paint18_linear)"/>
<path d="M311.807 49.6162C311.807 49.6162 311.807 52.4603 309.827 52.4603C309.121 52.4603 307.89 51.7695 307.89 49.6567C307.89 48.7949 308.287 47.7171 309.211 46.7676C309.562 46.3806 309.652 45.8631 309.344 45.431L307.979 43.577C307.628 43.1022 307.053 43.1022 306.658 43.4487C304.808 44.9135 303.751 47.2851 303.751 49.6567C303.751 54.5708 306.922 56.9424 309.827 56.9424C313.305 56.9424 315.681 54.3548 315.945 49.6994C315.945 49.6994 315.858 46.5088 318.147 46.5088C319.424 46.5088 320.789 47.4134 320.789 49.6567C320.789 51.5107 319.38 53.2343 318.19 54.0983C317.749 54.3999 317.618 54.8746 317.926 55.3494L319.114 57.0752C319.466 57.55 319.994 57.6355 320.479 57.334C322.593 56.0402 324.969 53.4548 324.969 49.6589C324.969 44.7448 321.975 41.8984 318.144 41.8984C313.877 41.8984 311.984 45.4783 311.807 49.6162Z" fill="url(#paint19_linear)"/>
<path d="M307.933 29.3992C307.933 27.5024 309.211 26.7261 310.619 25.9071C311.104 25.6056 311.148 25.088 310.84 24.6133L309.475 22.586C309.124 22.0684 308.462 22.199 308.154 22.3272C305.996 23.1462 303.751 25.5606 303.751 29.3969C303.751 34.0524 307.187 37.1575 311.104 37.1575H317.62C321.538 37.1575 324.973 34.0524 324.973 29.3969C324.973 25.5606 322.728 23.1462 320.571 22.3272C320.263 22.199 319.603 22.0684 319.25 22.586L317.885 24.6133C317.577 25.088 317.62 25.6056 318.105 25.9071C319.514 26.7261 320.791 27.5024 320.791 29.3992C320.791 31.4265 319.162 32.5471 317.62 32.5471H316.828C316.52 32.5471 316.343 32.3738 316.343 32.0723V27.8466C316.343 27.2436 315.991 26.8994 315.376 26.8994H313.351C312.736 26.8994 312.384 27.2436 312.384 27.8466V32.0723C312.384 32.3738 312.207 32.5471 311.899 32.5471H311.106C309.562 32.5448 307.933 31.4243 307.933 29.3992Z" fill="url(#paint20_linear)"/>
<path d="M280 91.2716C280 96.9441 284.697 101.543 290.489 101.543C296.282 101.543 300.978 96.9441 300.978 91.2716C300.978 85.5992 296.282 81 290.489 81C284.694 81 280 85.5992 280 91.2716ZM296.87 91.2716C296.87 94.7232 294.014 97.5201 290.489 97.5201C286.964 97.5201 284.108 94.7232 284.108 91.2716C284.108 87.82 286.964 85.0231 290.489 85.0231C294.011 85.0231 296.87 87.82 296.87 91.2716Z" fill="url(#paint21_linear)"/>
<defs>
<linearGradient id="paint0_linear" x1="109.852" y1="132.594" x2="109.852" y2="168.4" gradientUnits="userSpaceOnUse">
<stop stop-color="#29008A"/>
<stop offset="0.609375" stop-color="#D60000"/>
<stop offset="1" stop-color="#F9D638"/>
</linearGradient>
<linearGradient id="paint1_linear" x1="130.75" y1="91.1724" x2="130.75" y2="118.933" gradientUnits="userSpaceOnUse">
<stop stop-color="#29008A"/>
<stop offset="0.609375" stop-color="#D60000"/>
<stop offset="1" stop-color="#F9D638"/>
</linearGradient>
<linearGradient id="paint2_linear" x1="90.0309" y1="91.1724" x2="90.0309" y2="118.933" gradientUnits="userSpaceOnUse">
<stop stop-color="#29008A"/>
<stop offset="0.609375" stop-color="#D60000"/>
<stop offset="1" stop-color="#F9D638"/>
</linearGradient>
<linearGradient id="paint3_linear" x1="111.315" y1="0" x2="111.315" y2="250.789" gradientUnits="userSpaceOnUse">
<stop stop-color="#29008A"/>
<stop offset="0.609375" stop-color="#D60000"/>
<stop offset="1" stop-color="#F9D638"/>
</linearGradient>
<linearGradient id="paint4_linear" x1="302.35" y1="145.341" x2="302.35" y2="235.999" gradientUnits="userSpaceOnUse">
<stop stop-color="#29008A"/>
<stop offset="0.609375" stop-color="#D60000"/>
<stop offset="1" stop-color="#F9D638"/>
</linearGradient>
<linearGradient id="paint5_linear" x1="483.545" y1="148.154" x2="483.545" y2="237.791" gradientUnits="userSpaceOnUse">
<stop stop-color="#0F00B8"/>
<stop offset="0.609375" stop-color="#DF4628"/>
<stop offset="1" stop-color="#F9D638"/>
</linearGradient>
<linearGradient id="paint6_linear" x1="484.602" y1="150.03" x2="484.602" y2="234.421" gradientUnits="userSpaceOnUse">
<stop stop-color="#29008A"/>
<stop offset="0.609375" stop-color="#D60000"/>
<stop offset="1" stop-color="#F9D638"/>
</linearGradient>
<linearGradient id="paint7_linear" x1="568.119" y1="23.4422" x2="568.119" y2="108.772" gradientUnits="userSpaceOnUse">
<stop stop-color="#29008A"/>
<stop offset="0.609375" stop-color="#D60000"/>
<stop offset="1" stop-color="#F9D638"/>
</linearGradient>
<linearGradient id="paint8_linear" x1="484.482" y1="23.4422" x2="484.482" y2="113.079" gradientUnits="userSpaceOnUse">
<stop stop-color="#29008A"/>
<stop offset="0.609375" stop-color="#D60000"/>
<stop offset="1" stop-color="#F9D638"/>
</linearGradient>
<linearGradient id="paint9_linear" x1="390.294" y1="23.4422" x2="390.294" y2="110.339" gradientUnits="userSpaceOnUse">
<stop stop-color="#29008A"/>
<stop offset="0.609375" stop-color="#D60000"/>
<stop offset="1" stop-color="#F9D638"/>
</linearGradient>
<linearGradient id="paint10_linear" x1="388.419" y1="148.154" x2="388.419" y2="235.052" gradientUnits="userSpaceOnUse">
<stop stop-color="#29008A"/>
<stop offset="0.609375" stop-color="#D60000"/>
<stop offset="1" stop-color="#F9D638"/>
</linearGradient>
<linearGradient id="paint11_linear" x1="568.119" y1="148.154" x2="568.119" y2="233.484" gradientUnits="userSpaceOnUse">
<stop stop-color="#29008A"/>
<stop offset="0.609375" stop-color="#D60000"/>
<stop offset="1" stop-color="#F9D638"/>
</linearGradient>
<linearGradient id="paint12_linear" x1="303.917" y1="91.9806" x2="324.895" y2="91.9806" gradientUnits="userSpaceOnUse">
<stop stop-color="#0F00B8"/>
<stop offset="1" stop-color="#E64937"/>
</linearGradient>
<linearGradient id="paint13_linear" x1="279.919" y1="112.927" x2="300.647" y2="112.927" gradientUnits="userSpaceOnUse">
<stop stop-color="#0F00B8"/>
<stop offset="1" stop-color="#E64937"/>
</linearGradient>
<linearGradient id="paint14_linear" x1="304.19" y1="112.907" x2="324.527" y2="112.907" gradientUnits="userSpaceOnUse">
<stop stop-color="#0F00B8"/>
<stop offset="1" stop-color="#E64937"/>
</linearGradient>
<linearGradient id="paint15_linear" x1="280.358" y1="69.6913" x2="301.086" y2="69.6913" gradientUnits="userSpaceOnUse">
<stop stop-color="#0F00B8"/>
<stop offset="1" stop-color="#E64937"/>
</linearGradient>
<linearGradient id="paint16_linear" x1="279.924" y1="49.7632" x2="301.086" y2="49.7632" gradientUnits="userSpaceOnUse">
<stop stop-color="#0F00B8"/>
<stop offset="1" stop-color="#E64937"/>
</linearGradient>
<linearGradient id="paint17_linear" x1="279.917" y1="29.955" x2="300.647" y2="29.955" gradientUnits="userSpaceOnUse">
<stop stop-color="#0F00B8"/>
<stop offset="1" stop-color="#E64937"/>
</linearGradient>
<linearGradient id="paint18_linear" x1="304.19" y1="69.5743" x2="324.968" y2="69.5743" gradientUnits="userSpaceOnUse">
<stop stop-color="#0F00B8"/>
<stop offset="1" stop-color="#E64937"/>
</linearGradient>
<linearGradient id="paint19_linear" x1="303.751" y1="49.7042" x2="324.969" y2="49.7042" gradientUnits="userSpaceOnUse">
<stop stop-color="#0F00B8"/>
<stop offset="1" stop-color="#E64937"/>
</linearGradient>
<linearGradient id="paint20_linear" x1="303.751" y1="29.6847" x2="324.973" y2="29.6847" gradientUnits="userSpaceOnUse">
<stop stop-color="#0F00B8"/>
<stop offset="1" stop-color="#E64937"/>
</linearGradient>
<linearGradient id="paint21_linear" x1="280" y1="91.2716" x2="300.978" y2="91.2716" gradientUnits="userSpaceOnUse">
<stop stop-color="#0F00B8"/>
<stop offset="1" stop-color="#E64937"/>
</linearGradient>
</defs>
</svg>
